<svg width="10" height="6" viewBox="0 0 10 6" fill="none" xmlns="http://www.w3.org/2000/svg">
<path d="M5.00008 3.92488L1.91256 0.837358C1.68475 0.609552 1.31541 0.609552 1.0876 0.837358C0.859797 1.06516 0.859797 1.43451 1.0876 1.66232L4.5876 5.16232C4.81541 5.39012 5.18475 5.39012 5.41256 5.16232L8.91256 1.66232C9.14037 1.43451 9.14037 1.06516 8.91256 0.837358C8.68475 0.609552 8.31541 0.609552 8.0876 0.837358L5.00008 3.92488Z" fill="#646464"/>
<mask id="mask0_1533_736" style="mask-type:luminance" maskUnits="userSpaceOnUse" x="0" y="0" width="10" height="6">
<path d="M5.00008 3.92488L1.91256 0.837358C1.68475 0.609552 1.31541 0.609552 1.0876 0.837358C0.859797 1.06516 0.859797 1.43451 1.0876 1.66232L4.5876 5.16232C4.81541 5.39012 5.18475 5.39012 5.41256 5.16232L8.91256 1.66232C9.14037 1.43451 9.14037 1.06516 8.91256 0.837358C8.68475 0.609552 8.31541 0.609552 8.0876 0.837358L5.00008 3.92488Z" fill="white"/>
</mask>
<g mask="url(#mask0_1533_736)">
</g>
</svg>
